<?xml version="1.0" encoding="utf-8"?>
<svg viewBox="42.631 142.107 441.262 135.999" xmlns="http://www.w3.org/2000/svg">
  <path d="M 150.06 204.297 C 129.029 191.702 94.342 190.542 74.265 196.685 C 73.496 196.917 72.688 196.995 71.888 196.915 C 71.089 196.835 70.313 196.597 69.606 196.216 C 68.899 195.835 68.274 195.319 67.768 194.696 C 67.262 194.073 66.884 193.357 66.657 192.588 C 66.182 191.032 66.343 189.352 67.104 187.914 C 67.865 186.476 69.165 185.396 70.72 184.91 C 93.764 177.853 132.078 179.217 156.29 193.71 C 159.19 195.448 160.143 199.221 158.423 202.141 C 158.02 202.835 157.483 203.442 156.843 203.926 C 156.203 204.411 155.472 204.764 154.694 204.965 C 153.916 205.165 153.106 205.21 152.31 205.095 C 151.515 204.98 150.75 204.709 150.06 204.297 Z M 149.371 222.953 C 149.026 223.526 148.571 224.024 148.031 224.42 C 147.491 224.815 146.878 225.1 146.227 225.257 C 145.577 225.414 144.901 225.44 144.24 225.335 C 143.578 225.229 142.945 224.993 142.376 224.642 C 124.845 213.768 98.108 210.622 77.363 216.975 C 76.721 217.168 76.047 217.233 75.38 217.165 C 74.713 217.098 74.066 216.899 73.477 216.581 C 72.887 216.263 72.366 215.832 71.944 215.313 C 71.522 214.793 71.207 214.195 71.018 213.554 C 70.626 212.257 70.762 210.858 71.396 209.661 C 72.031 208.463 73.113 207.564 74.408 207.157 C 98.102 199.903 127.563 203.417 147.701 215.902 C 150.088 217.387 150.843 220.544 149.371 222.953 Z M 141.389 240.867 C 141.115 241.326 140.752 241.726 140.321 242.044 C 139.89 242.361 139.401 242.59 138.88 242.717 C 138.36 242.844 137.82 242.867 137.291 242.783 C 136.761 242.699 136.254 242.512 135.799 242.231 C 120.473 232.787 101.195 230.653 78.482 235.889 C 77.959 236.007 77.418 236.021 76.89 235.93 C 76.362 235.839 75.857 235.644 75.404 235.357 C 74.952 235.071 74.561 234.697 74.253 234.259 C 73.946 233.821 73.729 233.326 73.614 232.804 C 73.369 231.748 73.554 230.638 74.127 229.717 C 74.701 228.797 75.616 228.141 76.674 227.892 C 101.526 222.161 122.844 224.631 140.044 235.229 C 140.966 235.804 141.624 236.717 141.876 237.772 C 142.127 238.828 141.952 239.939 141.389 240.867 Z M 111.471 145.964 C 75.433 145.964 46.226 175.422 46.226 211.761 C 46.226 248.105 75.433 277.557 111.471 277.557 C 147.503 277.557 176.715 248.105 176.715 211.761 C 176.715 175.422 147.503 145.964 111.465 145.964 L 111.471 145.964 Z M 223.728 206.706 C 212.466 203.995 210.459 202.097 210.459 198.099 C 210.459 194.326 213.987 191.785 219.224 191.785 C 224.302 191.785 229.34 193.715 234.622 197.686 C 234.782 197.807 234.98 197.851 235.178 197.824 C 235.276 197.808 235.369 197.774 235.452 197.722 C 235.535 197.67 235.607 197.602 235.664 197.521 L 241.165 189.7 C 241.274 189.545 241.32 189.355 241.295 189.167 C 241.269 188.98 241.174 188.809 241.028 188.688 C 234.743 183.601 227.664 181.131 219.39 181.131 C 207.228 181.131 198.733 188.49 198.733 199.023 C 198.733 210.32 206.065 214.313 218.728 217.404 C 229.506 219.906 231.325 222.007 231.325 225.758 C 231.325 229.911 227.648 232.496 221.727 232.496 C 215.15 232.496 209.786 230.263 203.788 225.021 C 203.715 224.956 203.629 224.906 203.536 224.875 C 203.443 224.844 203.345 224.832 203.247 224.839 C 203.149 224.847 203.054 224.874 202.967 224.92 C 202.88 224.965 202.803 225.028 202.741 225.104 L 196.572 232.507 C 196.447 232.654 196.384 232.845 196.397 233.038 C 196.411 233.231 196.499 233.412 196.644 233.541 C 203.629 239.827 212.212 243.144 221.474 243.144 C 234.583 243.144 243.051 235.922 243.051 224.746 C 243.051 215.297 237.455 210.072 223.728 206.706 Z M 282.219 219.367 C 282.219 227.342 277.346 232.914 270.367 232.914 C 263.476 232.914 258.272 227.095 258.272 219.367 C 258.272 211.645 263.47 205.826 270.372 205.826 C 277.236 205.826 282.219 211.519 282.219 219.367 Z M 272.704 195.497 C 267.026 195.497 262.362 197.758 258.52 202.383 L 258.52 197.18 C 258.521 196.984 258.445 196.795 258.308 196.655 C 258.17 196.515 257.983 196.435 257.787 196.432 L 247.698 196.432 C 247.6 196.433 247.504 196.453 247.414 196.491 C 247.324 196.529 247.242 196.584 247.173 196.653 C 247.105 196.723 247.051 196.805 247.014 196.895 C 246.977 196.986 246.959 197.083 246.959 197.18 L 246.959 255.007 C 246.959 255.42 247.29 255.755 247.698 255.755 L 257.787 255.755 C 257.983 255.752 258.17 255.672 258.308 255.532 C 258.445 255.392 258.521 255.203 258.52 255.007 L 258.52 236.753 C 262.368 241.103 267.026 243.226 272.704 243.226 C 283.261 243.226 293.945 235.031 293.945 219.367 C 293.945 203.698 283.261 195.497 272.704 195.497 Z M 321.338 232.996 C 314.105 232.996 308.659 227.139 308.659 219.367 C 308.659 211.568 313.918 205.903 321.173 205.903 C 328.45 205.903 333.935 211.766 333.935 219.543 C 333.935 227.337 328.643 232.996 321.338 232.996 Z M 321.338 195.503 C 307.744 195.503 297.093 206.063 297.093 219.538 C 297.093 232.87 307.672 243.32 321.173 243.32 C 334.812 243.32 345.495 232.798 345.495 219.367 C 345.495 205.986 334.889 195.497 321.338 195.497 L 321.338 195.503 Z M 374.526 196.432 L 363.429 196.432 L 363.429 184.992 C 363.43 184.894 363.412 184.797 363.376 184.707 C 363.339 184.616 363.285 184.533 363.216 184.464 C 363.148 184.394 363.066 184.339 362.975 184.301 C 362.885 184.263 362.788 184.244 362.69 184.244 L 352.602 184.244 C 352.406 184.247 352.22 184.326 352.082 184.465 C 351.945 184.604 351.868 184.791 351.868 184.987 L 351.868 196.432 L 347.017 196.432 C 346.92 196.433 346.823 196.453 346.733 196.491 C 346.644 196.529 346.562 196.584 346.494 196.654 C 346.426 196.723 346.372 196.806 346.336 196.896 C 346.3 196.986 346.282 197.083 346.284 197.18 L 346.284 205.925 C 346.284 206.332 346.615 206.668 347.017 206.668 L 351.868 206.668 L 351.868 229.289 C 351.868 238.43 356.378 243.067 365.275 243.067 C 368.892 243.067 371.891 242.313 374.724 240.691 C 374.838 240.626 374.933 240.532 374.999 240.419 C 375.064 240.306 375.099 240.178 375.099 240.047 L 375.099 231.72 C 375.099 231.593 375.066 231.469 375.005 231.358 C 374.943 231.248 374.854 231.155 374.747 231.088 C 374.64 231.021 374.518 230.983 374.393 230.978 C 374.267 230.972 374.142 230.998 374.03 231.055 C 372.084 232.045 370.209 232.496 368.109 232.496 C 364.873 232.496 363.423 231.011 363.423 227.694 L 363.423 206.662 L 374.526 206.662 C 374.624 206.661 374.72 206.641 374.81 206.603 C 374.9 206.565 374.982 206.51 375.051 206.441 C 375.119 206.371 375.173 206.289 375.21 206.199 C 375.247 206.108 375.265 206.012 375.265 205.914 L 375.265 197.169 C 375.265 197.072 375.247 196.975 375.21 196.885 C 375.173 196.795 375.119 196.713 375.05 196.644 C 374.982 196.575 374.9 196.521 374.81 196.483 C 374.72 196.446 374.623 196.427 374.526 196.427 L 374.526 196.432 Z M 413.198 196.476 L 413.198 195.074 C 413.198 190.938 414.77 189.09 418.298 189.09 C 420.398 189.09 422.091 189.513 423.981 190.151 C 424.093 190.186 424.211 190.195 424.326 190.176 C 424.441 190.157 424.55 190.111 424.643 190.041 C 424.739 189.972 424.817 189.881 424.871 189.776 C 424.924 189.671 424.952 189.554 424.952 189.436 L 424.952 180.867 C 424.953 180.708 424.903 180.552 424.808 180.423 C 424.714 180.294 424.581 180.199 424.428 180.152 C 421.714 179.319 418.888 178.91 416.049 178.942 C 406.732 178.942 401.803 184.233 401.803 194.232 L 401.803 196.388 L 396.958 196.388 C 396.761 196.389 396.573 196.468 396.435 196.607 C 396.297 196.747 396.219 196.935 396.219 197.131 L 396.219 205.92 C 396.219 206.332 396.55 206.668 396.958 206.668 L 401.809 206.668 L 401.809 241.56 C 401.809 241.972 402.134 242.302 402.542 242.302 L 412.631 242.302 C 413.033 242.302 413.364 241.972 413.364 241.56 L 413.364 206.662 L 422.785 206.662 L 437.212 241.543 C 435.575 245.212 433.96 245.943 431.766 245.943 C 429.985 245.943 428.116 245.404 426.198 244.348 C 426.109 244.3 426.012 244.271 425.911 244.261 C 425.811 244.252 425.709 244.263 425.613 244.293 C 425.517 244.327 425.429 244.38 425.354 244.449 C 425.279 244.518 425.219 244.602 425.178 244.695 L 421.76 252.257 C 421.68 252.427 421.669 252.621 421.727 252.8 C 421.785 252.979 421.909 253.128 422.074 253.22 C 425.351 255.095 429.074 256.056 432.852 256.003 C 440.294 256.003 444.412 252.505 448.045 243.089 L 465.543 197.488 C 465.587 197.375 465.603 197.253 465.589 197.132 C 465.576 197.011 465.533 196.896 465.466 196.795 C 465.399 196.696 465.309 196.614 465.203 196.557 C 465.097 196.501 464.979 196.471 464.859 196.471 L 454.357 196.471 C 454.203 196.471 454.053 196.52 453.927 196.609 C 453.802 196.699 453.707 196.825 453.657 196.971 L 442.902 227.958 L 431.121 196.949 C 431.069 196.808 430.975 196.687 430.852 196.602 C 430.728 196.516 430.582 196.47 430.432 196.471 L 413.198 196.471 L 413.198 196.476 Z M 390.778 196.432 L 380.689 196.432 C 380.493 196.435 380.306 196.515 380.168 196.655 C 380.031 196.795 379.955 196.984 379.956 197.18 L 379.956 241.56 C 379.956 241.972 380.287 242.302 380.695 242.302 L 390.783 242.302 C 391.186 242.302 391.517 241.972 391.517 241.56 L 391.517 197.175 C 391.517 196.979 391.439 196.791 391.3 196.651 C 391.162 196.512 390.974 196.433 390.778 196.432 Z M 385.783 176.225 C 383.855 176.237 382.011 177.011 380.654 178.379 C 379.298 179.746 378.542 181.594 378.55 183.518 C 378.545 184.471 378.729 185.416 379.089 186.299 C 379.451 187.182 379.982 187.985 380.654 188.663 C 381.327 189.341 382.126 189.88 383.007 190.249 C 383.888 190.619 384.833 190.811 385.789 190.817 C 387.718 190.805 389.563 190.03 390.919 188.661 C 392.276 187.292 393.032 185.443 393.022 183.518 C 393.022 179.487 389.78 176.225 385.789 176.225 L 385.783 176.225 Z M 474.567 200.849 L 472.72 200.849 L 472.72 203.225 L 474.567 203.225 C 475.488 203.225 476.039 202.768 476.039 202.037 C 476.039 201.261 475.488 200.849 474.567 200.849 Z M 475.763 204.237 L 477.776 207.075 L 476.078 207.075 L 474.275 204.473 L 472.72 204.473 L 472.72 207.075 L 471.304 207.075 L 471.304 199.556 L 474.622 199.556 C 476.353 199.556 477.494 200.453 477.494 201.954 C 477.519 202.476 477.359 202.99 477.042 203.407 C 476.726 203.824 476.274 204.118 475.763 204.237 Z M 474.192 197.059 C 470.554 197.059 467.803 199.974 467.803 203.544 C 467.803 207.108 470.537 209.984 474.154 209.984 C 477.792 209.984 480.549 207.069 480.549 203.5 C 480.549 199.936 477.809 197.059 474.192 197.059 Z M 474.154 210.699 C 473.216 210.697 472.288 210.51 471.423 210.148 C 470.558 209.787 469.774 209.259 469.114 208.594 C 468.455 207.929 467.934 207.14 467.581 206.273 C 467.228 205.407 467.051 204.479 467.059 203.544 C 467.059 199.617 470.201 196.344 474.192 196.344 C 475.13 196.346 476.058 196.533 476.923 196.895 C 477.788 197.256 478.572 197.784 479.232 198.449 C 479.891 199.114 480.412 199.903 480.765 200.77 C 481.118 201.636 481.295 202.564 481.287 203.5 C 481.287 207.427 478.145 210.705 474.154 210.705 L 474.154 210.699 Z" fill="#1ED760"/>
</svg>